<svg xmlns="http://www.w3.org/2000/svg" xml:space="preserve" style="fill-rule:evenodd;clip-rule:evenodd;stroke-linecap:round;stroke-linejoin:round;stroke-miterlimit:1.5" viewBox="0 0 1303 577">
  <path d="M829.989 475.085h1200.05v715.713H829.989z" style="fill:none" transform="matrix(1.08573 0 0 .8058 -901.147 -382.821)"/>
  <path d="m1986.85 555.294-344.18 4.851-6.71 400.489-545.29-1.298 2.99-401.908-198.887-2.134v576.886H1986.85V555.294Z" style="fill:#ffa200;stroke:#000;stroke-width:7.59px" transform="matrix(1.12146 0 0 .94743 -937.687 -511.517)"/>
  <path d="M164.603-439.777h317.752v40.105H164.603z" style="fill:none;stroke:#000;stroke-width:2.72px" transform="translate(121.667 558.071)"/>
  <path d="M164.603-439.777h317.752v40.105H164.603z" style="fill:none;stroke:#000;stroke-width:2.72px" transform="translate(121.667 499.361)"/>
  <path d="M164.603-439.777h317.752v40.105H164.603z" style="stroke:#000;stroke-width:.89px" transform="matrix(.04062 0 0 4.34769 597.139 1936.856)"/>
  <path d="M164.603-439.777h317.752v40.105H164.603z" style="fill:#a1a1a1;stroke:#000;stroke-width:1.38px" transform="matrix(.03565 0 0 2.7922 284.796 1281.214)"/>
  <path d="M164.603-439.777h317.752v40.105H164.603z" style="fill:#a1a1a1;stroke:#000;stroke-width:1.38px" transform="matrix(.03565 0 0 2.7922 46.177 1281.214)"/>
  <path d="m23.253 183.126 31.275.341" style="fill:none;stroke:#000;stroke-width:7.91px;stroke-linecap:butt" transform="matrix(1.42055 -.00115 -.00368 .99982 -24.81 -78.492)"/>
  <path d="M957.43 182.987h286.901V395.85H957.43z"/>
  <path d="M121.28 95.85c3.6 7.92 2.13 27.27-9.3 41.76-4.18 5.3-5.72 10.7-4.43 14.2s4.65 4.6 9.55 3.48c13.2-3 17.63-8.06 25.73-26.24 6.64-14.88 18.7-18.71 27.68-18.71s20.29 3.91 27 17.2c4.52 8.89 6.33 12.36 16 14 6.35 1 7.61-4.26 13-2.38a74.456 74.456 0 0 0 23.36 3.8c2 .08 3.07 1.4 3.05 2.69 0 1.83-2.17 2.81-3.61 3.33-11.17 4-22.37-.69-30.73.5C203.31 151 195.53 161 182 163.22c-13.53 2.22-24.41-4.16-25.74-16.57-.94-8.74 4.91-18 14.15-18.64 6.11-.44 12.58 3.8 12.74 10.33.09 3.94-2.52 8.16-7.63 8-5.11-.16-7.89-4-6.62-8.06-4.21 2.83-3.69 8.95-.66 12.42 4.9 5.6 13.66 4.62 18.62-.32 7.06-7 5.56-18.7-1.42-25.18a21.48 21.48 0 0 0-14.717-5.838 21.484 21.484 0 0 0-16.773 8.068c-9.37 12-7.59 30.31-9.86 42.6-1.45 7.72-6.69 15.36-14.12 20.82-16.47 14.93-33.74 25.23-45.07 44-2.81 4.67-5.57 4.67-7.14 3.79-4.58-2.56 4.62-18.41 14.91-25.63a322.728 322.728 0 0 0 26.3-37.53c-7 1-13.74 5.66-17.28 8.74-6.36 5.53-15.2 12.56-22.75 12.51-7.55-.05-12.32-6.35-11.56-9.65 2.45-10.55 4.07-27.38 16.23-36.23a23.51 23.51 0 0 1 8.77-3.58c3.47-.83 2.28-11.62 3.35-23.52 1.07-11.9 13.32-23.12 25.6-27.94l-.05.04Zm-36.15 64.46c-3.43 0-7.26 11-3.29 10a9.226 9.226 0 0 0 6.17-5c.55-1.1.55-5-2.88-5Z" style="fill:#fff;fill-opacity:.97;fill-rule:nonzero" transform="translate(909.753 79.457) scale(1.26984)"/>
</svg>
