<svg version="1.1" id="Layer_1" xmlns="http://www.w3.org/2000/svg" xmlns:xlink="http://www.w3.org/1999/xlink" x="0px" y="0px"
	 width="100%" viewBox="0 0 126 134" enable-background="new 0 0 126 134" xml:space="preserve">
<path fill="#D5D5D5" opacity="1.000000" stroke="none" 
	d="
M75.000000,135.000000 
	C50.023579,135.000000 25.547153,135.000000 1.035365,135.000000 
	C1.035365,90.399918 1.035365,45.799801 1.035365,1.099840 
	C42.892811,1.099840 84.785942,1.099840 126.839539,1.099840 
	C126.839539,45.666199 126.839539,90.333046 126.839539,135.000000 
	C109.800240,135.000000 92.650124,135.000000 75.000000,135.000000 
M88.296585,87.761711 
	C93.956581,84.923965 99.576942,82.003189 105.289536,79.275604 
	C109.606918,77.214195 113.040703,74.604523 112.973999,69.271591 
	C112.908302,64.019325 109.504959,61.272339 105.274094,59.159531 
	C83.061142,48.066849 60.864464,36.941486 38.635330,25.881353 
	C29.161854,21.167810 22.010820,25.698446 21.999294,36.372139 
	C21.975718,58.205383 21.982933,80.038681 21.996046,101.871941 
	C22.002523,112.660568 29.229893,117.212410 38.880344,112.426216 
	C55.150799,104.356812 71.377953,96.200089 88.296585,87.761711 
z"/>
<path fill="#9C9C9C" opacity="1.000000" stroke="none" 
	d="
M87.959953,87.920898 
	C71.377953,96.200089 55.150799,104.356812 38.880344,112.426216 
	C29.229893,117.212410 22.002523,112.660568 21.996046,101.871941 
	C21.982933,80.038681 21.975718,58.205383 21.999294,36.372139 
	C22.010820,25.698446 29.161854,21.167810 38.635330,25.881353 
	C60.864464,36.941486 83.061142,48.066849 105.274094,59.159531 
	C109.504959,61.272339 112.908302,64.019325 112.973999,69.271591 
	C113.040703,74.604523 109.606918,77.214195 105.289536,79.275604 
	C99.576942,82.003189 93.956581,84.923965 87.959953,87.920898 
M30.086147,110.821205 
	C32.795185,110.312233 35.770226,110.356140 38.168907,109.202087 
	C51.079163,102.990730 63.846859,96.483009 76.662476,90.075020 
	C86.050545,85.380844 95.555832,80.898781 104.738853,75.832726 
	C107.002609,74.583862 109.547699,71.420746 109.534546,69.151703 
	C109.521431,66.889847 106.938629,63.709530 104.657692,62.538719 
	C82.127419,50.973850 59.440945,39.712288 36.762138,28.438400 
	C30.390676,25.271076 26.052444,27.797400 26.025780,34.766190 
	C25.937788,57.763935 25.899431,80.763191 26.137703,103.758797 
	C26.161121,106.018898 28.217976,108.257935 30.086147,110.821205 
z"/>
<path fill="#D0D0D0" opacity="1.000000" stroke="none" 
	d="
M29.708572,110.663971 
	C28.217976,108.257935 26.161121,106.018898 26.137703,103.758797 
	C25.899431,80.763191 25.937788,57.763935 26.025780,34.766190 
	C26.052444,27.797400 30.390676,25.271076 36.762138,28.438400 
	C59.440945,39.712288 82.127419,50.973850 104.657692,62.538719 
	C106.938629,63.709530 109.521431,66.889847 109.534546,69.151703 
	C109.547699,71.420746 107.002609,74.583862 104.738853,75.832726 
	C95.555832,80.898781 86.050545,85.380844 76.662476,90.075020 
	C63.846859,96.483009 51.079163,102.990730 38.168907,109.202087 
	C35.770226,110.356140 32.795185,110.312233 29.708572,110.663971 
M28.017672,39.639645 
	C28.017733,60.111423 28.003778,80.583221 28.025568,101.054977 
	C28.033049,108.083641 30.677797,109.726616 37.027298,106.563286 
	C58.771458,95.730270 80.511963,84.889091 102.176155,73.897865 
	C104.048439,72.947968 106.805473,70.600517 106.578506,69.381195 
	C106.226837,67.491905 103.946907,65.447937 101.985664,64.450897 
	C81.217766,53.893116 60.351498,43.528835 39.510666,33.114563 
	C37.724415,32.221962 35.987152,31.184860 34.120487,30.509750 
	C30.704502,29.274303 28.608547,30.650066 28.089264,34.198124 
	C27.874392,35.666279 28.030396,37.188713 28.017672,39.639645 
z"/>
<path fill="#9A9A9A" opacity="1.000000" stroke="none" 
	d="
M28.017700,39.163055 
	C28.030396,37.188713 27.874392,35.666279 28.089264,34.198124 
	C28.608547,30.650066 30.704502,29.274303 34.120487,30.509750 
	C35.987152,31.184860 37.724415,32.221962 39.510666,33.114563 
	C60.351498,43.528835 81.217766,53.893116 101.985664,64.450897 
	C103.946907,65.447937 106.226837,67.491905 106.578506,69.381195 
	C106.805473,70.600517 104.048439,72.947968 102.176155,73.897865 
	C80.511963,84.889091 58.771458,95.730270 37.027298,106.563286 
	C30.677797,109.726616 28.033049,108.083641 28.025568,101.054977 
	C28.003778,80.583221 28.017733,60.111423 28.017700,39.163055 
z"/>
</svg>